<svg width="24" height="24" viewBox="0 0 24 24" fill="none" xmlns="http://www.w3.org/2000/svg">
<path d="M7 18.5C7.39782 18.5 7.77924 18.6581 8.06055 18.9395C8.34185 19.2208 8.5 19.6022 8.5 20C8.5 20.3978 8.34185 20.7792 8.06055 21.0605C7.77924 21.3419 7.39782 21.5 7 21.5C6.60218 21.5 6.22076 21.3419 5.93945 21.0605C5.65815 20.7792 5.5 20.3978 5.5 20C5.5 19.1661 6.16614 18.5 7 18.5ZM17 18.5C17.3978 18.5 17.7792 18.6581 18.0605 18.9395C18.3419 19.2208 18.5 19.6022 18.5 20C18.5 20.3978 18.3419 20.7792 18.0605 21.0605C17.7792 21.3419 17.3978 21.5 17 21.5C16.6022 21.5 16.2208 21.3419 15.9395 21.0605C15.6581 20.7792 15.5 20.3978 15.5 20C15.5 19.1661 16.1661 18.5 17 18.5ZM3.95215 2.5L4.75781 4.21289L4.89258 4.5H20C20.1326 4.5 20.2597 4.55272 20.3535 4.64648C20.4473 4.74025 20.5 4.86739 20.5 5C20.5 5.07258 20.4769 5.16636 20.4258 5.28613L16.8633 11.7266C16.6076 12.1853 16.1104 12.5 15.5498 12.5H7.80469L7.66211 12.7588L6.7627 14.3887L6.73047 14.4453L6.71484 14.5088L6.68457 14.6289L6.66992 14.6885V14.75C6.66992 14.9489 6.74902 15.1396 6.88965 15.2803C7.03028 15.4209 7.22104 15.5 7.41992 15.5H18.5V16.5H7C6.60218 16.5 6.22076 16.3419 5.93945 16.0605C5.65815 15.7792 5.5 15.3978 5.5 15C5.5 14.7356 5.56815 14.4865 5.68066 14.2764L5.67969 14.2754L7.03711 11.833L7.16211 11.6084L7.05176 11.376L3.45215 3.78613L3.31641 3.5H1.5V2.5H3.95215ZM5.6875 6.21387L8.04785 11.2139L8.18262 11.5H16.2939L16.4365 11.2432L19.2168 6.24316L19.6299 5.5H5.35156L5.6875 6.21387Z" fill="white" stroke="white"/>
</svg>
