<svg width="22" height="22" viewBox="0 0 22 22" fill="none" xmlns="http://www.w3.org/2000/svg">
<path d="M18.3333 16.0417C18.6864 16.0418 19.0259 16.1779 19.2815 16.4215C19.537 16.6652 19.6891 16.9979 19.706 17.3506C19.723 17.7033 19.6036 18.049 19.3726 18.3161C19.1416 18.5832 18.8168 18.7512 18.4653 18.7853L18.3333 18.7917H3.66663C3.31351 18.7915 2.974 18.6555 2.71844 18.4118C2.46288 18.1681 2.31086 17.8355 2.2939 17.4827C2.27693 17.13 2.3963 16.7843 2.62729 16.5172C2.85827 16.2501 3.18316 16.0822 3.53463 16.0481L3.66663 16.0417H18.3333ZM18.3333 9.625C18.698 9.625 19.0477 9.76987 19.3056 10.0277C19.5634 10.2856 19.7083 10.6353 19.7083 11C19.7083 11.3647 19.5634 11.7144 19.3056 11.9723C19.0477 12.2301 18.698 12.375 18.3333 12.375H3.66663C3.30195 12.375 2.95222 12.2301 2.69435 11.9723C2.43649 11.7144 2.29163 11.3647 2.29163 11C2.29163 10.6353 2.43649 10.2856 2.69435 10.0277C2.95222 9.76987 3.30195 9.625 3.66663 9.625H18.3333ZM18.3333 3.20834C18.698 3.20834 19.0477 3.3532 19.3056 3.61106C19.5634 3.86893 19.7083 4.21866 19.7083 4.58334C19.7083 4.94801 19.5634 5.29775 19.3056 5.55561C19.0477 5.81347 18.698 5.95834 18.3333 5.95834H3.66663C3.30195 5.95834 2.95222 5.81347 2.69435 5.55561C2.43649 5.29775 2.29163 4.94801 2.29163 4.58334C2.29163 4.21866 2.43649 3.86893 2.69435 3.61106C2.95222 3.3532 3.30195 3.20834 3.66663 3.20834H18.3333Z" fill="#2E7D32"/>
</svg>
