<svg width="24" height="24" viewBox="0 0 24 24" fill="none" xmlns="http://www.w3.org/2000/svg">
<g clip-path="url(#clip0_1749_29)">
<path d="M5.80371 16.3496C5.34207 16.3497 4.89971 16.533 4.57324 16.8594C4.24671 17.1859 4.0625 17.629 4.0625 18.0908C4.06263 18.5524 4.24682 18.9949 4.57324 19.3213C4.89971 19.6477 5.34206 19.831 5.80371 19.8311C6.2655 19.8311 6.70862 19.6478 7.03516 19.3213C7.36151 18.9949 7.54479 18.5524 7.54492 18.0908C7.54492 17.6291 7.36163 17.1859 7.03516 16.8594C6.70862 16.5328 6.2655 16.3496 5.80371 16.3496ZM17.4121 16.3496C16.9503 16.3496 16.5072 16.5328 16.1807 16.8594C15.8542 17.1859 15.6709 17.6291 15.6709 18.0908C15.671 18.5524 15.8543 18.9949 16.1807 19.3213C16.5072 19.6478 16.9503 19.8311 17.4121 19.8311C17.8738 19.831 18.3171 19.6478 18.6436 19.3213C18.9698 18.9949 19.1532 18.5523 19.1533 18.0908C19.1533 17.6292 18.9699 17.1859 18.6436 16.8594C18.3171 16.5329 17.8738 16.3497 17.4121 16.3496ZM1.74121 16.3496H3.46875L3.6416 16.1553C3.90311 15.8622 4.22131 15.6252 4.57715 15.459C4.93305 15.2927 5.3193 15.201 5.71191 15.1885C6.10455 15.176 6.49557 15.2434 6.86133 15.3867C7.22513 15.5293 7.55625 15.7438 7.83496 16.0176L7.97852 16.168L8.15039 16.3496H15.0654L15.2373 16.1689L15.3604 16.0381L15.4902 15.915L15.6709 15.7441V4.74121H1.74121V16.3496ZM2.90234 17.5098H2.32129C1.85972 17.5097 1.41726 17.3263 1.09082 17C0.764283 16.6735 0.580078 16.2303 0.580078 15.7686V5.32129C0.580158 4.8596 0.764354 4.41729 1.09082 4.09082C1.41729 3.76435 1.8596 3.58016 2.32129 3.58008H15.0908C15.5524 3.58021 15.9949 3.7644 16.3213 4.09082C16.6477 4.41728 16.831 4.85965 16.8311 5.32129V7.0625H19.1758C19.4366 7.06253 19.6946 7.12148 19.9297 7.23438C20.1061 7.31915 20.2673 7.43279 20.4053 7.57031L20.5352 7.71582L22.2529 9.86426C22.4693 10.1344 22.5996 10.4621 22.6289 10.8047L22.6357 10.9531V15.7686C22.6357 16.2303 22.4524 16.6735 22.126 17C21.7995 17.3265 21.3562 17.5097 20.8945 17.5098H20.3135V18.0908C20.3133 18.8603 20.008 19.5985 19.4639 20.1426C18.9197 20.6867 18.1816 20.9921 17.4121 20.9922C16.6426 20.9922 15.9045 20.6866 15.3604 20.1426C14.8162 19.5985 14.5099 18.8603 14.5098 18.0908V17.5098H8.70605V18.0908C8.70599 18.4718 8.63113 18.8492 8.48535 19.2012C8.33954 19.5532 8.12583 19.8732 7.85645 20.1426C7.58697 20.4121 7.26615 20.6256 6.91406 20.7715C6.56209 20.9172 6.18466 20.9922 5.80371 20.9922C5.42271 20.9922 5.04536 20.9173 4.69336 20.7715C4.34134 20.6257 4.02139 20.412 3.75195 20.1426C3.48256 19.8732 3.26888 19.5531 3.12305 19.2012C2.97727 18.8492 2.90241 18.4718 2.90234 18.0908V17.5098ZM21.4746 10.748L21.3477 10.5889L19.6299 8.44141L19.4551 8.22363H16.8311V15.1885H17.4121C18.2025 15.1885 18.9192 15.5045 19.4443 16.0176L19.5869 16.168L19.7578 16.3496H21.4746V10.748Z" fill="#0D99FF" stroke="white" stroke-width="1.1608"/>
</g>
<defs>
<clipPath id="clip0_1749_29">
<rect width="24" height="24" fill="white"/>
</clipPath>
</defs>
</svg>
