<svg width="24" height="24" viewBox="0 0 24 24" fill="none" xmlns="http://www.w3.org/2000/svg">
<path d="M17.4 20.05V10.15C17.4 9.91128 17.3052 9.68236 17.1364 9.51358C16.9676 9.3448 16.7387 9.24998 16.5 9.24998H7.49998C7.26128 9.24998 7.03236 9.3448 6.86358 9.51358C6.6948 9.68236 6.59998 9.91128 6.59998 10.15V20.05" stroke="white" stroke-width="1.8" stroke-linecap="round" stroke-linejoin="round"/>
<path d="M6.6 12.85H17.4M6.6 16.45H17.4M21 18.25C21 18.7274 20.8104 19.1852 20.4728 19.5228C20.1352 19.8603 19.6774 20.05 19.2 20.05H4.8C4.32261 20.05 3.86477 19.8603 3.52721 19.5228C3.18964 19.1852 3 18.7274 3 18.25V8.34998C2.9998 8.01101 3.09532 7.67888 3.27555 7.39181C3.45579 7.10474 3.71342 6.87439 4.0188 6.72728L11.1738 3.15068C11.4293 3.01857 11.7128 2.94963 12.0004 2.94963C12.2881 2.94963 12.5716 3.01857 12.8271 3.15068L19.9803 6.72728C20.2858 6.87426 20.5437 7.10455 20.7241 7.39164C20.9045 7.67872 21.0001 8.01092 21 8.34998V18.25Z" stroke="white" stroke-width="1.8" stroke-linecap="round" stroke-linejoin="round"/>
</svg>
