<svg width="539" height="400" viewBox="0 0 539 400" fill="none" xmlns="http://www.w3.org/2000/svg">
<path d="M274.74 355.083H77.79C67.843 355.083 59.779 347.019 59.779 337.072C59.779 327.125 67.843 319.061 77.79 319.061H274.74C284.688 319.061 292.751 327.125 292.751 337.072C292.751 347.019 284.687 355.083 274.74 355.083Z" fill="#FFC74D"/>
<path d="M508.001 258.121H486.363C475.01 258.121 465.807 248.918 465.807 237.565V168.054C465.807 151.025 452.002 137.22 434.973 137.22H398.292C386.939 137.22 377.736 128.017 377.736 116.664V109.253C377.736 92.224 363.931 78.419 346.902 78.419H130.003C112.974 78.419 99.169 92.224 99.169 109.253V171.761C99.169 183.114 89.966 192.317 78.613 192.317H30.834C13.805 192.317 0 206.122 0 223.151V306.237C0 323.266 13.805 337.071 30.834 337.071H258.288C269.641 337.071 278.844 346.274 278.844 357.627V368.512C278.844 385.541 292.649 399.346 309.678 399.346H413.632C430.661 399.346 444.466 385.541 444.466 368.512V362.125C444.466 350.772 453.669 341.569 465.022 341.569H508C525.029 341.569 538.834 327.764 538.834 310.735V288.954C538.835 271.926 525.03 258.121 508.001 258.121Z" fill="#FBF6ED"/>
<mask id="mask0_1697_189" style="mask-type:luminance" maskUnits="userSpaceOnUse" x="0" y="78" width="539" height="322">
<path d="M508.001 258.121H486.363C475.01 258.121 465.807 248.918 465.807 237.565V168.054C465.807 151.025 452.002 137.22 434.973 137.22H398.292C386.939 137.22 377.736 128.017 377.736 116.664V109.253C377.736 92.224 363.931 78.419 346.902 78.419H130.003C112.974 78.419 99.169 92.224 99.169 109.253V171.761C99.169 183.114 89.966 192.317 78.613 192.317H30.834C13.805 192.317 0 206.122 0 223.151V306.237C0 323.266 13.805 337.071 30.834 337.071H258.288C269.641 337.071 278.844 346.274 278.844 357.627V368.512C278.844 385.541 292.649 399.346 309.678 399.346H413.632C430.661 399.346 444.466 385.541 444.466 368.512V362.125C444.466 350.772 453.669 341.569 465.022 341.569H508C525.029 341.569 538.834 327.764 538.834 310.735V288.954C538.835 271.926 525.03 258.121 508.001 258.121Z" fill="white"/>
</mask>
<g mask="url(#mask0_1697_189)">
<path d="M472.813 243.392L448.784 219.363L438.501 229.646L433.567 224.712L416.121 242.158L430.944 254.728L472.813 243.392Z" fill="#EDD6B2"/>
</g>
<mask id="mask1_1697_189" style="mask-type:luminance" maskUnits="userSpaceOnUse" x="0" y="78" width="539" height="322">
<path d="M508.001 258.121H486.363C475.01 258.121 465.807 248.918 465.807 237.565V168.054C465.807 151.025 452.002 137.22 434.973 137.22H398.292C386.939 137.22 377.736 128.017 377.736 116.664V109.253C377.736 92.224 363.931 78.419 346.902 78.419H130.003C112.974 78.419 99.169 92.224 99.169 109.253V171.761C99.169 183.114 89.966 192.317 78.613 192.317H30.834C13.805 192.317 0 206.122 0 223.151V306.237C0 323.266 13.805 337.071 30.834 337.071H258.288C269.641 337.071 278.844 346.274 278.844 357.627V368.512C278.844 385.541 292.649 399.346 309.678 399.346H413.632C430.661 399.346 444.466 385.541 444.466 368.512V362.125C444.466 350.772 453.669 341.569 465.022 341.569H508C525.029 341.569 538.834 327.764 538.834 310.735V288.954C538.835 271.926 525.03 258.121 508.001 258.121Z" fill="white"/>
</mask>
<g mask="url(#mask1_1697_189)">
<path d="M351.089 299.681L416.4 234.371L429.183 247.154L465.143 211.194L543.024 289.076L351.089 299.681Z" fill="#F1E3C8"/>
</g>
<mask id="mask2_1697_189" style="mask-type:luminance" maskUnits="userSpaceOnUse" x="0" y="78" width="539" height="322">
<path d="M508.001 258.121H486.363C475.01 258.121 465.807 248.918 465.807 237.565V168.054C465.807 151.025 452.002 137.22 434.973 137.22H398.292C386.939 137.22 377.736 128.017 377.736 116.664V109.253C377.736 92.224 363.931 78.419 346.902 78.419H130.003C112.974 78.419 99.169 92.224 99.169 109.253V171.761C99.169 183.114 89.966 192.317 78.613 192.317H30.834C13.805 192.317 0 206.122 0 223.151V306.237C0 323.266 13.805 337.071 30.834 337.071H258.288C269.641 337.071 278.844 346.274 278.844 357.627V368.512C278.844 385.541 292.649 399.346 309.678 399.346H413.632C430.661 399.346 444.466 385.541 444.466 368.512V362.125C444.466 350.772 453.669 341.569 465.022 341.569H508C525.029 341.569 538.834 327.764 538.834 310.735V288.954C538.835 271.926 525.03 258.121 508.001 258.121Z" fill="white"/>
</mask>
<g mask="url(#mask2_1697_189)">
<path d="M401.884 341.962L345.026 285.104L302.854 327.276L287.251 311.673L256.962 341.962L275.97 393.499L401.884 341.962Z" fill="#F1E3C8"/>
</g>
<mask id="mask3_1697_189" style="mask-type:luminance" maskUnits="userSpaceOnUse" x="0" y="78" width="539" height="322">
<path d="M508.001 258.121H486.363C475.01 258.121 465.807 248.918 465.807 237.565V168.054C465.807 151.025 452.002 137.22 434.973 137.22H398.292C386.939 137.22 377.736 128.017 377.736 116.664V109.253C377.736 92.224 363.931 78.419 346.902 78.419H130.003C112.974 78.419 99.169 92.224 99.169 109.253V171.761C99.169 183.114 89.966 192.317 78.613 192.317H30.834C13.805 192.317 0 206.122 0 223.151V306.237C0 323.266 13.805 337.071 30.834 337.071H258.288C269.641 337.071 278.844 346.274 278.844 357.627V368.512C278.844 385.541 292.649 399.346 309.678 399.346H413.632C430.661 399.346 444.466 385.541 444.466 368.512V362.125C444.466 350.772 453.669 341.569 465.022 341.569H508C525.029 341.569 538.834 327.764 538.834 310.735V288.954C538.835 271.926 525.03 258.121 508.001 258.121Z" fill="white"/>
</mask>
<g mask="url(#mask3_1697_189)">
<path d="M553.164 263.274C532.8 257.339 511.263 254.154 488.982 254.154C386.617 254.154 299.949 321.32 270.617 413.982H553.164V263.274Z" fill="#78A531"/>
</g>
<mask id="mask4_1697_189" style="mask-type:luminance" maskUnits="userSpaceOnUse" x="0" y="78" width="539" height="322">
<path d="M508.001 258.121H486.363C475.01 258.121 465.807 248.918 465.807 237.565V168.054C465.807 151.025 452.002 137.22 434.973 137.22H398.292C386.939 137.22 377.736 128.017 377.736 116.664V109.253C377.736 92.224 363.931 78.419 346.902 78.419H130.003C112.974 78.419 99.169 92.224 99.169 109.253V171.761C99.169 183.114 89.966 192.317 78.613 192.317H30.834C13.805 192.317 0 206.122 0 223.151V306.237C0 323.266 13.805 337.071 30.834 337.071H258.288C269.641 337.071 278.844 346.274 278.844 357.627V368.512C278.844 385.541 292.649 399.346 309.678 399.346H413.632C430.661 399.346 444.466 385.541 444.466 368.512V362.125C444.466 350.772 453.669 341.569 465.022 341.569H508C525.029 341.569 538.834 327.764 538.834 310.735V288.954C538.835 271.926 525.03 258.121 508.001 258.121Z" fill="white"/>
</mask>
<g mask="url(#mask4_1697_189)">
<path d="M553.164 269.274C532.8 263.576 511.263 260.518 488.982 260.518C386.617 260.518 299.949 325.01 270.617 413.982H553.164V269.274Z" fill="#518F3D"/>
</g>
<mask id="mask5_1697_189" style="mask-type:luminance" maskUnits="userSpaceOnUse" x="0" y="78" width="539" height="322">
<path d="M508.001 258.121H486.363C475.01 258.121 465.807 248.918 465.807 237.565V168.054C465.807 151.025 452.002 137.22 434.973 137.22H398.292C386.939 137.22 377.736 128.017 377.736 116.664V109.253C377.736 92.224 363.931 78.419 346.902 78.419H130.003C112.974 78.419 99.169 92.224 99.169 109.253V171.761C99.169 183.114 89.966 192.317 78.613 192.317H30.834C13.805 192.317 0 206.122 0 223.151V306.237C0 323.266 13.805 337.071 30.834 337.071H258.288C269.641 337.071 278.844 346.274 278.844 357.627V368.512C278.844 385.541 292.649 399.346 309.678 399.346H413.632C430.661 399.346 444.466 385.541 444.466 368.512V362.125C444.466 350.772 453.669 341.569 465.022 341.569H508C525.029 341.569 538.834 327.764 538.834 310.735V288.954C538.835 271.926 525.03 258.121 508.001 258.121Z" fill="white"/>
</mask>
<g mask="url(#mask5_1697_189)">
<path d="M102.19 341.269C101.107 325.089 98.578 308.718 91.203 294.302C83.554 279.352 69.925 266.682 53.383 263.786C44.499 262.231 34.419 263.209 27.504 257.419C21.814 252.655 20.107 244.711 15.969 238.55C8.33202 227.179 -8.59398 223.335 -20.394 230.292V341.268H102.19V341.269Z" fill="#78A531"/>
</g>
<mask id="mask6_1697_189" style="mask-type:luminance" maskUnits="userSpaceOnUse" x="0" y="78" width="539" height="322">
<path d="M508.001 258.121H486.363C475.01 258.121 465.807 248.918 465.807 237.565V168.054C465.807 151.025 452.002 137.22 434.973 137.22H398.292C386.939 137.22 377.736 128.017 377.736 116.664V109.253C377.736 92.224 363.931 78.419 346.902 78.419H130.003C112.974 78.419 99.169 92.224 99.169 109.253V171.761C99.169 183.114 89.966 192.317 78.613 192.317H30.834C13.805 192.317 0 206.122 0 223.151V306.237C0 323.266 13.805 337.071 30.834 337.071H258.288C269.641 337.071 278.844 346.274 278.844 357.627V368.512C278.844 385.541 292.649 399.346 309.678 399.346H413.632C430.661 399.346 444.466 385.541 444.466 368.512V362.125C444.466 350.772 453.669 341.569 465.022 341.569H508C525.029 341.569 538.834 327.764 538.834 310.735V288.954C538.835 271.926 525.03 258.121 508.001 258.121Z" fill="white"/>
</mask>
<g mask="url(#mask6_1697_189)">
<path d="M457.148 404.263L457.199 369.971C448.796 360.985 437.632 355.403 425.352 355.403C417.962 355.403 411.981 359.725 406.33 363.981C403.502 366.111 400.669 368.28 397.525 369.932C393.157 372.227 389.814 371.131 385.28 369.635C380.553 368.075 376.056 365.33 371.062 364.972C364.189 364.479 357.198 366.635 352.786 372.149C350.348 375.196 348.836 378.783 347.209 382.293C345.702 385.545 344.221 389.444 340.788 391.003C335.738 393.296 330.128 392.61 325.188 394.674C322.908 395.627 320.8 396.989 318.988 398.668C318.382 399.23 314.944 404.272 314.706 404.272C329.808 404.257 344.911 404.261 360.013 404.261C376.835 404.261 393.657 404.261 410.479 404.261C423.431 404.261 436.383 404.261 449.336 404.261C451.94 404.263 454.544 404.263 457.148 404.263Z" fill="#0D442D"/>
</g>
<mask id="mask7_1697_189" style="mask-type:luminance" maskUnits="userSpaceOnUse" x="0" y="78" width="539" height="322">
<path d="M508.001 258.121H486.363C475.01 258.121 465.807 248.918 465.807 237.565V168.054C465.807 151.025 452.002 137.22 434.973 137.22H398.292C386.939 137.22 377.736 128.017 377.736 116.664V109.253C377.736 92.224 363.931 78.419 346.902 78.419H130.003C112.974 78.419 99.169 92.224 99.169 109.253V171.761C99.169 183.114 89.966 192.317 78.613 192.317H30.834C13.805 192.317 0 206.122 0 223.151V306.237C0 323.266 13.805 337.071 30.834 337.071H258.288C269.641 337.071 278.844 346.274 278.844 357.627V368.512C278.844 385.541 292.649 399.346 309.678 399.346H413.632C430.661 399.346 444.466 385.541 444.466 368.512V362.125C444.466 350.772 453.669 341.569 465.022 341.569H508C525.029 341.569 538.834 327.764 538.834 310.735V288.954C538.835 271.926 525.03 258.121 508.001 258.121Z" fill="white"/>
</mask>
<g mask="url(#mask7_1697_189)">
<path d="M529.053 424.099C524.309 423.09 518.936 421.612 516.817 417.249C515.985 415.536 515.714 413.455 514.298 412.18C512.704 410.743 510.192 410.836 508.47 409.555C505.241 407.153 506.307 401.307 502.91 399.149C501.5 398.253 499.683 398.284 498.182 397.55C493.622 395.321 494.604 388.058 490.889 384.599C489.082 382.917 486.343 382.345 484.879 380.358C483.437 378.401 483.678 375.693 482.818 373.419C481.882 370.948 479.722 369.169 478.3 366.941C475.124 361.966 475.879 355.222 472.682 350.261C471.058 347.741 468.479 345.799 467.501 342.965C466.665 340.542 467.143 337.839 466.45 335.372C465.493 331.966 462.427 329.412 461.679 325.954C460.97 322.671 462.472 319.052 461.118 315.978C459.961 313.35 456.952 311.772 456.18 309.007C455.189 305.462 457.831 302.582 455.745 298.291C459.4 301.967 462.921 300.37 465.845 302.938C467.219 304.145 467.888 305.999 469.252 307.219C472.159 309.817 477.009 308.645 480.209 310.871C483.205 312.955 483.751 317.273 486.396 319.788C488.488 321.778 491.6 322.36 493.782 324.25C497.099 327.124 497.44 332.176 500.031 335.719C502.75 339.437 507.63 341.078 510.39 344.765C514.019 349.611 513.245 356.965 517.482 361.291C519.065 362.907 521.198 363.91 522.745 365.56C526.875 369.964 525.509 377.071 527.551 382.753C528.81 386.255 531.427 389.363 531.577 393.081C531.671 395.401 530.77 397.683 530.915 400C531.152 403.791 534.131 407.056 534.123 410.855C534.115 416.039 528.253 418.978 529.053 424.099Z" fill="#1C7847"/>
<path d="M534.616 442.748C535.528 442.564 536.424 442.324 537.308 442.042C531.717 425.481 522.607 400.651 512.827 382.817C491.284 343.531 455.745 298.291 455.745 298.291C455.745 298.291 474.012 323.209 499.944 365.612C516.568 392.794 528.321 423.911 534.616 442.748Z" fill="#78A531"/>
</g>
<mask id="mask8_1697_189" style="mask-type:luminance" maskUnits="userSpaceOnUse" x="0" y="78" width="539" height="322">
<path d="M508.001 258.121H486.363C475.01 258.121 465.807 248.918 465.807 237.565V168.054C465.807 151.025 452.002 137.22 434.973 137.22H398.292C386.939 137.22 377.736 128.017 377.736 116.664V109.253C377.736 92.224 363.931 78.419 346.902 78.419H130.003C112.974 78.419 99.169 92.224 99.169 109.253V171.761C99.169 183.114 89.966 192.317 78.613 192.317H30.834C13.805 192.317 0 206.122 0 223.151V306.237C0 323.266 13.805 337.071 30.834 337.071H258.288C269.641 337.071 278.844 346.274 278.844 357.627V368.512C278.844 385.541 292.649 399.346 309.678 399.346H413.632C430.661 399.346 444.466 385.541 444.466 368.512V362.125C444.466 350.772 453.669 341.569 465.022 341.569H508C525.029 341.569 538.834 327.764 538.834 310.735V288.954C538.835 271.926 525.03 258.121 508.001 258.121Z" fill="white"/>
</mask>
<g mask="url(#mask8_1697_189)">
<path d="M531.091 351.909C530.596 316.993 509.064 284.591 477.683 269.274C472.088 301.94 485.644 337.182 511.689 357.678C518.405 358.13 525.143 355.061 531.091 351.909Z" fill="#78A531"/>
<path d="M508.6 325.7C513.503 321.238 513.939 309.798 513.057 299.043C512.535 298.327 512.003 297.618 511.461 296.917C512.552 307.764 512.518 319.807 507.968 324.406C503.953 316.181 499.185 306.811 493.563 296.339C496.053 292.836 496.24 286.784 495.527 280.648C495.013 280.234 494.5 279.818 493.977 279.414C494.819 285.408 494.892 291.43 492.824 294.966C488.625 287.176 483.96 278.792 478.803 269.847C478.429 269.658 478.06 269.46 477.683 269.276C477.621 269.64 477.574 270.005 477.516 270.369C486.151 285.337 493.399 298.73 499.409 310.409C492.978 309.845 484.616 302.97 477.133 295.268C477.228 296.043 477.327 296.817 477.441 297.589C485.085 305.223 493.537 311.762 500.14 311.841C506.674 324.599 511.725 335.281 515.491 343.685C507.627 344.082 497.184 337.049 487.74 328.799C488.381 330.002 489.045 331.191 489.737 332.365C499.978 340.838 508.39 345.112 514.839 345.112C515.268 345.112 515.678 345.068 516.09 345.029C518.082 349.509 519.688 353.29 520.957 356.375C521.395 356.237 521.832 356.09 522.267 355.935C519.487 349.177 515.063 339.005 508.6 325.7Z" fill="#17563B"/>
</g>
<mask id="mask9_1697_189" style="mask-type:luminance" maskUnits="userSpaceOnUse" x="0" y="78" width="539" height="322">
<path d="M508.001 258.121H486.363C475.01 258.121 465.807 248.918 465.807 237.565V168.054C465.807 151.025 452.002 137.22 434.973 137.22H398.292C386.939 137.22 377.736 128.017 377.736 116.664V109.253C377.736 92.224 363.931 78.419 346.902 78.419H130.003C112.974 78.419 99.169 92.224 99.169 109.253V171.761C99.169 183.114 89.966 192.317 78.613 192.317H30.834C13.805 192.317 0 206.122 0 223.151V306.237C0 323.266 13.805 337.071 30.834 337.071H258.288C269.641 337.071 278.844 346.274 278.844 357.627V368.512C278.844 385.541 292.649 399.346 309.678 399.346H413.632C430.661 399.346 444.466 385.541 444.466 368.512V362.125C444.466 350.772 453.669 341.569 465.022 341.569H508C525.029 341.569 538.834 327.764 538.834 310.735V288.954C538.835 271.926 525.03 258.121 508.001 258.121Z" fill="white"/>
</mask>
<g mask="url(#mask9_1697_189)">
<path d="M212.801 307.834C217.468 304.712 223.155 302.691 226.381 298.095C231.078 291.406 228.993 281.415 234.24 275.149C238.062 270.585 244.698 269.379 248.973 265.236C251.579 262.711 253.095 259.304 254.828 256.117C256.562 252.929 258.739 249.734 262.035 248.218C265.331 246.701 269.963 247.595 271.43 250.914C272.766 253.936 271.018 257.48 268.672 259.806C266.326 262.132 263.357 263.826 261.33 266.435C255.093 274.465 260.196 287.29 254.384 295.634C252.131 298.869 248.518 300.936 246.155 304.092C240.441 311.723 243.714 322.534 242.203 331.946C241.019 339.322 236.587 346.116 230.313 350.171C218.431 357.851 201.379 355.501 197.488 340.364C194.583 329.054 203.551 314.022 212.801 307.834Z" fill="#17563B"/>
<path d="M264.19 254.173C239.426 287.456 218.065 323.27 200.549 360.876" stroke="#518F3D" stroke-width="2" stroke-miterlimit="10" stroke-linecap="round"/>
</g>
<mask id="mask10_1697_189" style="mask-type:luminance" maskUnits="userSpaceOnUse" x="0" y="78" width="539" height="322">
<path d="M508.001 258.121H486.363C475.01 258.121 465.807 248.918 465.807 237.565V168.054C465.807 151.025 452.002 137.22 434.973 137.22H398.292C386.939 137.22 377.736 128.017 377.736 116.664V109.253C377.736 92.224 363.931 78.419 346.902 78.419H130.003C112.974 78.419 99.169 92.224 99.169 109.253V171.761C99.169 183.114 89.966 192.317 78.613 192.317H30.834C13.805 192.317 0 206.122 0 223.151V306.237C0 323.266 13.805 337.071 30.834 337.071H258.288C269.641 337.071 278.844 346.274 278.844 357.627V368.512C278.844 385.541 292.649 399.346 309.678 399.346H413.632C430.661 399.346 444.466 385.541 444.466 368.512V362.125C444.466 350.772 453.669 341.569 465.022 341.569H508C525.029 341.569 538.834 327.764 538.834 310.735V288.954C538.835 271.926 525.03 258.121 508.001 258.121Z" fill="white"/>
</mask>
<g mask="url(#mask10_1697_189)">
<path d="M229.349 347.708C226.352 342.445 229.881 335.751 234.39 331.707C238.899 327.663 244.582 324.643 247.595 319.389C249.482 316.098 250.156 312.168 252.375 309.091C255.131 305.27 259.862 303.321 262.856 299.684C266.267 295.541 266.392 288.691 270.723 285.488C272.591 284.107 274.792 283.213 276.597 281.749C278.401 280.285 279.81 277.946 279.205 275.703C281.329 280.979 279.616 286.95 274.975 290.237C271.693 292.562 272.002 295.595 271.575 299.594C271.147 303.593 271.074 307.892 268.741 311.169C267.147 313.407 264.688 314.865 262.827 316.887C258.987 321.057 258.107 327.048 256.755 332.554C255.146 339.11 252.317 345.851 246.681 349.566C241.044 353.281 232.69 353.574 229.349 347.708Z" fill="#78A531"/>
<path d="M279.205 275.704C280.107 284.034 274.481 285.005 271.666 288.38C269.928 290.465 269.242 293.213 268.732 295.879C268.054 299.421 267.474 303.256 264.957 305.838C262.989 307.856 260.136 308.765 257.995 310.6C254.911 313.243 253.697 317.422 252.808 321.385C251.919 325.348 251.118 329.532 248.534 332.667C246.352 335.314 243.133 336.906 240.775 339.398C237.25 343.123 236.024 348.403 234.935 353.415" stroke="#518F3D" stroke-miterlimit="10"/>
</g>
<mask id="mask11_1697_189" style="mask-type:luminance" maskUnits="userSpaceOnUse" x="0" y="78" width="539" height="322">
<path d="M508.001 258.121H486.363C475.01 258.121 465.807 248.918 465.807 237.565V168.054C465.807 151.025 452.002 137.22 434.973 137.22H398.292C386.939 137.22 377.736 128.017 377.736 116.664V109.253C377.736 92.224 363.931 78.419 346.902 78.419H130.003C112.974 78.419 99.169 92.224 99.169 109.253V171.761C99.169 183.114 89.966 192.317 78.613 192.317H30.834C13.805 192.317 0 206.122 0 223.151V306.237C0 323.266 13.805 337.071 30.834 337.071H258.288C269.641 337.071 278.844 346.274 278.844 357.627V368.512C278.844 385.541 292.649 399.346 309.678 399.346H413.632C430.661 399.346 444.466 385.541 444.466 368.512V362.125C444.466 350.772 453.669 341.569 465.022 341.569H508C525.029 341.569 538.834 327.764 538.834 310.735V288.954C538.835 271.926 525.03 258.121 508.001 258.121Z" fill="white"/>
</mask>
<g mask="url(#mask11_1697_189)">
<path d="M541.847 356.086C549.677 329.428 539.888 298.636 519.352 279.921C507.666 305.211 511.875 337.065 529.73 358.451C534.637 356.286 536.495 355.72 541.847 356.086Z" fill="#17563B"/>
<path d="M529.233 320.443L536.131 302.239C535.853 301.685 535.575 301.132 535.284 300.585L528.693 317.978C526.234 306.772 523.398 294.18 520.259 280.78C519.956 280.494 519.659 280.203 519.352 279.923C519.191 280.271 519.045 280.624 518.89 280.974C520.197 286.554 521.455 292.002 522.651 297.26L515.286 291.243C515.156 291.732 515.028 292.221 514.908 292.712L523.146 299.443C526.896 315.983 530.058 330.642 532.463 342.085L515.466 330.675C515.651 331.363 515.851 332.047 516.055 332.729L532.867 344.015C533.864 348.778 534.718 352.921 535.421 356.366C535.867 356.266 536.317 356.186 536.78 356.127C535.093 347.856 532.519 335.481 529.233 320.443Z" fill="#1C7847"/>
</g>
<path d="M114.198 119.184H61.179C56.974 119.184 53.566 122.592 53.566 126.797V156.3C53.566 160.505 56.975 163.913 61.179 163.913H82.041L87.53 169.402L93.019 163.913H114.198C118.403 163.913 121.811 160.504 121.811 156.3V126.797C121.812 122.593 118.403 119.184 114.198 119.184Z" fill="#FFC74D"/>
<path d="M91.724 151.501L87.534 154.213L83.344 151.505C72.87 144.734 72.87 139.897 72.87 138.077C72.87 133.816 76.321 130.361 80.586 130.361C83.638 130.361 86.275 132.136 87.533 134.709C88.784 132.136 91.421 130.361 94.473 130.361C98.738 130.361 102.189 133.816 102.189 138.077C102.19 139.896 102.19 144.73 91.724 151.501Z" fill="white"/>
<path d="M182.568 276.409C214.208 276.409 239.857 250.76 239.857 219.12C239.857 187.48 214.208 161.831 182.568 161.831C150.928 161.831 125.279 187.48 125.279 219.12C125.279 250.76 150.928 276.409 182.568 276.409Z" fill="#FFC74D"/>
<path d="M83.19 337.067H36.367L59.778 226.909L83.19 337.067Z" fill="#0F2739"/>
<path d="M207.975 337.071L83.19 337.067L59.778 226.909L184.564 226.913L207.975 337.071Z" fill="white"/>
<path d="M80.63 220.186C76.916 220.186 73.905 223.197 73.905 226.911H77.284C77.284 225.063 78.782 223.565 80.631 223.565C82.479 223.565 83.977 225.063 83.977 226.911C83.977 228.604 82.716 229.988 81.084 230.212C81.324 231.321 81.606 232.419 81.91 233.511C85.012 232.913 87.355 230.187 87.355 226.911C87.355 223.197 84.344 220.186 80.63 220.186Z" fill="#78A531"/>
<path d="M98.282 220.186C94.568 220.186 91.557 223.197 91.557 226.911H94.936C94.936 225.063 96.434 223.565 98.282 223.565C100.13 223.565 101.628 225.063 101.628 226.911C101.628 228.604 100.367 229.988 98.735 230.212C98.975 231.321 99.256 232.419 99.561 233.511C102.663 232.913 105.006 230.187 105.006 226.911C105.007 223.197 101.996 220.186 98.282 220.186Z" fill="#78A531"/>
<path d="M145.093 220.186C141.379 220.186 138.368 223.197 138.368 226.911H141.747C141.747 225.063 143.245 223.565 145.093 223.565C146.941 223.565 148.44 225.063 148.44 226.911C148.44 228.604 147.179 229.988 145.547 230.212C145.787 231.321 146.069 232.419 146.373 233.511C149.475 232.913 151.818 230.187 151.818 226.911C151.819 223.197 148.808 220.186 145.093 220.186Z" fill="#78A531"/>
<path d="M162.746 220.186C159.032 220.186 156.021 223.197 156.021 226.911H159.4C159.4 225.063 160.898 223.565 162.746 223.565C164.594 223.565 166.092 225.063 166.092 226.911C166.092 228.604 164.831 229.988 163.199 230.212C163.439 231.321 163.721 232.419 164.025 233.511C167.127 232.913 169.47 230.187 169.47 226.911C169.471 223.197 166.46 220.186 162.746 220.186Z" fill="#78A531"/>
<path d="M93.007 240.273H105.925L109.703 258.048H96.785L93.007 240.273ZM75.978 240.273H88.896L92.674 258.048H79.756L75.978 240.273ZM140.688 323.707H127.77L123.992 305.932H136.91L140.688 323.707ZM157.717 323.707H144.799L141.021 305.932H153.939L157.717 323.707ZM174.746 323.707H161.828L158.05 305.932H170.968L174.746 323.707ZM191.775 323.707H178.857L175.079 305.932H187.997L191.775 323.707Z" fill="#FBF6ED"/>
<path d="M144.094 240.273H157.012L160.79 258.048H147.872L144.094 240.273ZM165.442 279.935H152.524L148.746 262.159H161.664L165.442 279.935ZM170.094 301.821H157.176L153.398 284.045H166.316L170.094 301.821ZM102.311 284.046H115.229L119.007 301.822H106.089L102.311 284.046ZM97.659 262.159H110.577L114.355 279.935H101.437L97.659 262.159ZM148.413 279.935H135.495L131.717 262.159H144.635L148.413 279.935ZM131.384 279.935H118.466L114.688 262.159H127.606L131.384 279.935ZM119.34 284.046H132.258L136.036 301.822H123.118L119.34 284.046ZM136.369 284.046H149.287L153.065 301.822H140.147L136.369 284.046ZM127.065 240.273H139.983L143.761 258.048H130.843L127.065 240.273ZM110.036 240.273H122.954L126.732 258.048H113.814L110.036 240.273ZM80.63 262.159H93.548L97.326 279.935H84.408L80.63 262.159ZM85.282 284.046H98.2L101.978 301.822H89.06L85.282 284.046ZM106.63 323.707H93.712L89.934 305.932H102.852L106.63 323.707ZM123.659 323.707H110.741L106.963 305.932H119.881L123.659 323.707ZM187.123 301.821H174.205L170.427 284.045H183.345L187.123 301.821ZM182.471 279.935H169.553L165.775 262.159H178.693L182.471 279.935ZM164.901 258.048L161.123 240.273H174.041L177.819 258.048H164.901Z" fill="#FFC74D"/>
<path d="M525.684 121.53L538.305 125.902H437.732L450.463 120.945C450.252 118.289 451.517 115.593 453.52 113.837C455.523 112.081 458.373 111.34 460.978 111.897C459.254 107.045 461.347 100.536 465.205 97.126C469.063 93.716 474.502 92.445 479.626 92.947C484.661 93.441 489.619 95.634 492.939 99.451C496.259 103.268 497.744 108.77 496.242 113.602C498.339 112.25 501.478 112.292 503.624 113.565C505.77 114.838 507.097 117.377 506.916 119.866C509.23 116.977 514.196 115.634 517.873 116.061C521.552 116.488 524.094 118.187 525.684 121.53Z" fill="#FBF6ED"/>
<path d="M263.032 55.568L275.653 59.94H175.079L187.81 54.983C187.599 52.327 188.864 49.631 190.867 47.875C192.87 46.119 195.72 45.377 198.325 45.935C196.601 41.083 198.694 34.574 202.552 31.164C206.41 27.754 211.849 26.482 216.973 26.985C222.008 27.479 226.966 29.672 230.286 33.489C233.606 37.306 235.091 42.808 233.589 47.64C235.686 46.288 238.825 46.33 240.971 47.603C243.117 48.876 244.444 51.415 244.263 53.904C246.577 51.014 251.543 49.672 255.22 50.099C258.9 50.525 261.442 52.224 263.032 55.568Z" fill="#FBF6ED"/>
<path d="M197.484 115.356L205.002 117.96H145.093L152.677 115.007C152.551 113.425 153.305 111.819 154.498 110.773C155.691 109.727 157.389 109.285 158.941 109.617C157.914 106.727 159.161 102.849 161.459 100.818C163.757 98.787 166.997 98.029 170.049 98.329C173.048 98.623 176.001 99.93 177.979 102.203C179.957 104.477 180.841 107.754 179.947 110.632C181.196 109.826 183.066 109.852 184.345 110.61C185.623 111.368 186.414 112.881 186.306 114.363C187.685 112.642 190.643 111.842 192.833 112.097C195.023 112.352 196.537 113.364 197.484 115.356Z" fill="white"/>
<path d="M509.593 255.794C523.688 255.794 535.115 244.367 535.115 230.272C535.115 216.177 523.688 204.75 509.593 204.75C495.498 204.75 484.071 216.177 484.071 230.272C484.071 244.367 495.498 255.794 509.593 255.794Z" fill="#FFC74D"/>
<path d="M527.282 278.913C527.282 280.448 519.355 281.692 509.577 281.692C499.799 281.692 491.872 280.448 491.872 278.913C491.872 277.379 499.799 276.135 509.577 276.135C519.355 276.134 527.282 277.378 527.282 278.913Z" fill="white"/>
<path d="M484.071 230.272C484.071 256.581 509.593 279.184 509.593 279.184C509.593 279.184 535.115 256.581 535.115 230.272H484.071Z" fill="#FFC74D"/>
<path d="M520.763 237.076C524.515 230.907 522.555 222.865 516.387 219.114C510.218 215.362 502.176 217.322 498.424 223.491C494.673 229.659 496.632 237.701 502.801 241.453C508.97 245.204 517.012 243.245 520.763 237.076Z" fill="#F2A141"/>
<path opacity="0.2" d="M288.296 374.419C289.43 376.429 291.657 377.777 293.954 378.277C296.66 378.866 299.471 378.492 302.214 378.116C311.279 376.875 320.521 375.581 328.742 371.566C340.927 365.615 349.513 354.416 358.566 344.32C367.619 334.224 378.584 324.402 392.063 322.917C395.379 322.552 398.849 322.689 401.892 321.32C404.935 319.952 407.354 316.343 405.981 313.302C404.543 310.117 400.28 309.676 396.786 309.699C390.086 309.742 383.386 309.785 376.686 309.828C370.145 309.87 363.057 310.096 357.949 314.182C350.868 319.846 350.519 330.324 346.52 338.462C342.239 347.172 333.617 353.121 324.441 356.285C320.038 357.803 305.959 358.022 296.459 361.315C293.588 365.586 290.86 369.953 288.296 374.419Z" fill="#51863E"/>
<path d="M295.321 195.799C295.321 195.799 289.763 197.865 287.519 201.054C285.276 204.243 281.976 229.713 281.976 229.713L290.686 232.727L297.838 197.248L295.321 195.799Z" fill="white"/>
<path d="M296.402 198.912C296.402 198.912 288.221 217.69 288.134 233.138C288.047 248.586 298.736 246.715 307.182 247.782C315.628 248.849 313.939 192.407 313.939 192.407L296.402 198.912Z" fill="#0F2739"/>
<path d="M330.194 173.975L296.899 183.759L296.402 198.912L329.697 189.128C335.813 187.131 336.549 171.936 330.194 173.975Z" fill="#0F2739"/>
<path d="M296.9 183.759C289.934 185.994 290.238 200.924 296.403 198.912C302.519 196.915 303.254 181.72 296.9 183.759Z" fill="#1C7847"/>
<path d="M341.89 228.357L308.361 226.219L294.501 352.248H310.97L327.063 249.643H369.08V298.419H385.677L388.15 241.397C388.392 235.807 384.119 231.051 378.536 230.695L341.89 228.357Z" fill="#0D442D"/>
<path d="M312.706 223.97L297.838 354.141" stroke="#003415" stroke-miterlimit="10"/>
<path d="M310.812 240.548C310.812 240.548 316.094 237.215 317.067 224.907" stroke="#003415" stroke-miterlimit="10"/>
<path d="M327.645 245.922L327.062 249.642H338.479L327.645 245.922Z" fill="#003415"/>
<path d="M327.062 249.642L330.135 227.607L331.546 227.697L327.996 248.854L327.062 250.189" fill="#003415"/>
<path d="M329.122 238.006L375.48 240.972C376.573 241.042 377.419 241.957 377.404 243.052L376.636 298.418" stroke="#003415" stroke-miterlimit="10"/>
<path d="M294.417 354.438L292.062 370.286H326.153C326.546 366.119 323.779 362.311 319.696 361.396L317.239 360.846C315.354 360.424 313.675 359.358 312.49 357.832L309.856 354.438H294.417Z" fill="#FFC74D"/>
<path d="M326.153 370.286V372.624H291.629L292.062 370.286H326.153Z" fill="white"/>
<path d="M304.167 362.955C304.167 365.096 302.431 366.832 300.29 366.832C298.149 366.832 296.413 365.096 296.413 362.955C296.413 360.814 298.149 359.078 300.29 359.078C302.432 359.078 304.167 360.814 304.167 362.955Z" fill="#F3B54D"/>
<path d="M312.751 355.642H292.062L292.947 350.303H313.636L312.751 355.642Z" fill="#0F2739"/>
<path d="M369.125 300.263L366.77 316.111H400.861C401.254 311.944 398.487 308.136 394.403 307.221L391.946 306.671C390.061 306.249 388.382 305.183 387.197 303.657L384.563 300.263H369.125Z" fill="#FFC74D"/>
<path d="M400.86 316.111V318.45H366.337L366.769 316.111H400.86Z" fill="white"/>
<path d="M378.875 308.781C378.875 310.922 377.139 312.658 374.998 312.658C372.857 312.658 371.121 310.922 371.121 308.781C371.121 306.64 372.857 304.904 374.998 304.904C377.139 304.904 378.875 306.639 378.875 308.781Z" fill="#F3B54D"/>
<path d="M387.74 295.946H367.051V301.284H387.74V295.946Z" fill="#0F2739"/>
<path d="M342.986 213.311L350.875 202.99L344.438 188.596C343.187 185.798 340.785 183.679 337.853 182.787L326.796 179.422L313.148 183.488C310.401 184.306 308.104 186.202 306.779 188.744L298.129 205.34L309.856 212.628L308.361 226.219L341.89 228.357L342.986 213.311Z" fill="#518F3D"/>
<path d="M319.079 181.72L315.196 182.877C316.434 198.985 309.855 212.627 309.855 212.627L307.904 216.889L309.201 218.578C309.201 218.578 318.327 209.389 319.187 194.807C319.529 188.986 319.38 184.744 319.079 181.72Z" fill="#0D442D"/>
<path d="M337.847 199.749L335.639 242.916L325.244 238.08L326.523 191.595L337.847 199.749Z" fill="#FFC74D"/>
<path d="M350.758 192.58L345.886 239.913L335.639 242.916L337.847 199.749L350.758 192.58Z" fill="#F3B54D"/>
<path d="M362.732 199.367L355.549 243.908L345.886 239.913L350.758 192.58L362.732 199.367Z" fill="#FFC74D"/>
<path d="M374.248 194.911L364.871 240.548L355.549 243.908L362.732 199.367L374.248 194.911Z" fill="#F3B54D"/>
<path d="M300.362 206.499L293.979 220.132C292.678 222.911 293.108 226.192 295.082 228.542C297.363 231.257 301.176 232.114 304.4 230.636L324.197 221.558L320.842 211.124L307.904 216.888L309.855 212.626L300.362 206.499Z" fill="#F39E6E"/>
<path d="M320.842 211.125C320.842 211.125 326.745 203.048 327.963 204.055C329.181 205.062 327.576 207.401 327.576 207.401C327.576 207.401 329.426 208.079 329.303 209.419C329.18 210.76 327.382 211.933 327.382 211.933C327.382 211.933 329.096 213.19 328.761 214.95C328.426 216.71 325.844 216.247 325.844 216.247L325.757 219.41C325.757 219.41 325.709 221.116 324.197 221.559L320.842 211.125Z" fill="#F39E6E"/>
<path d="M320.842 211.125C320.842 211.125 321.723 205.414 322.813 204.777C323.902 204.14 324.213 208.162 324.213 208.162L320.842 211.125Z" fill="#F39E6E"/>
<path d="M372.348 209.855C369.936 208.903 366.551 209.77 369.449 211.816C369.449 211.816 366.039 212.952 368.937 215.539C368.937 215.539 365.663 215.706 367.854 218.578C367.854 218.578 363.822 220.427 368.937 222.292C372.715 223.669 375.588 211.133 372.348 209.855Z" fill="#F39E6E"/>
<path d="M335.198 164.238C335.198 164.238 339.056 161.135 340.164 164.924C341.383 169.091 335.435 168.401 335.435 168.401L335.198 164.238Z" fill="#F39E6E"/>
<path d="M325.706 178.944C325.706 178.944 319.873 177.8 320.982 181.624C322.091 185.448 327.548 192.843 328.479 184.059C328.479 184.059 332.672 188.207 334.252 186.29C335.832 184.372 332.348 177.464 329.121 177.74C325.895 178.013 325.706 178.944 325.706 178.944Z" fill="white"/>
<path d="M318.188 169.518C318.188 169.518 316.284 172.555 316.961 172.978C317.638 173.401 319.385 171.585 319.385 171.585C319.385 171.585 319.378 174.605 321.384 173.535C323.391 172.465 321.116 169.005 321.116 169.005L318.188 169.518Z" fill="#0F2739"/>
<path d="M322.764 180.997L319.589 169.745C319.589 169.745 315.249 171.728 314.537 168.093C313.903 164.854 317.436 164.258 319.296 165.627C319.296 165.627 315.104 154.511 324.895 152.638C334.686 150.765 336.104 164.287 336.462 167.558C337.093 173.319 333.224 176.492 330.26 177.071L330.836 180.585C330.836 180.585 331.376 183.657 328.479 184.058C324.619 184.592 322.764 180.997 322.764 180.997Z" fill="#F39E6E"/>
<path d="M330.26 177.071C326.142 177.702 324.212 176.532 324.212 176.532C324.212 176.532 326.161 179.457 330.554 178.863L330.26 177.071Z" fill="#B2684B"/>
<path d="M333.651 151.312L332.027 148.864L313.7 157.598L314.021 161.341L333.651 151.312Z" fill="#FFC74D"/>
<path d="M332.027 148.864C332.027 148.864 327.122 140.232 325.127 144.184C322.809 148.776 321.936 143.076 317.252 145.386C314.015 146.983 313.378 153.855 313.699 157.599L332.027 148.864Z" fill="#518F3D"/>
<path d="M330.589 154.54C335.982 152.305 338.859 157.753 343.299 154.54C343.299 154.54 341.016 158.901 336.53 157.882C336.53 157.882 339.444 159.248 339.177 160.639C338.909 162.03 330.135 157.838 330.135 157.838L330.589 154.54Z" fill="#0F2739"/>
<path d="M320.456 159.996V168.062C320.456 168.062 320.217 166.546 318.325 165.76C316.434 164.974 314.481 164.03 314.481 164.03L320.456 159.996Z" fill="#0F2739"/>
<path d="M341.027 152.277L308.86 168.699C308.86 168.699 305.138 168.537 314.021 161.342L333.651 151.312C333.651 151.312 349.876 147.786 341.027 152.277Z" fill="#518F3D"/>
<path d="M381.81 181.033H400.687L402.894 163.74H379.603L381.81 181.033Z" fill="#1C7847"/>
<path d="M381.692 166.715L379.603 147.692H382.188L384.277 166.715H381.692ZM400.805 166.715L402.894 147.692H400.309L398.22 166.715H400.805Z" fill="#1C7847"/>
<path d="M382.76 170.393C382.76 170.393 380.404 172.479 380.404 174.908C380.404 176.209 381.459 177.264 382.76 177.264C384.061 177.264 385.116 176.209 385.116 174.908C385.116 172.479 382.76 170.393 382.76 170.393Z" fill="#FFC74D"/>
<path d="M391.249 170.393C391.249 170.393 388.893 172.479 388.893 174.908C388.893 176.209 389.948 177.264 391.249 177.264C392.55 177.264 393.605 176.209 393.605 174.908C393.604 172.479 391.249 170.393 391.249 170.393Z" fill="#FFC74D"/>
<path d="M399.737 170.393C399.737 170.393 397.381 172.479 397.381 174.908C397.381 176.209 398.436 177.264 399.737 177.264C401.038 177.264 402.093 176.209 402.093 174.908C402.093 172.479 399.737 170.393 399.737 170.393Z" fill="#FFC74D"/>
<path d="M400.309 147.692H402.894L402.658 149.844L400.019 150.338L400.309 147.692ZM382.189 147.692H379.604L380.299 154.026L382.832 153.552L382.189 147.692Z" fill="#0F2739"/>
<path d="M391.249 4.411C326.405 4.411 324.35 54.707 326.332 68.397C328.324 82.161 335.624 98.114 356.22 115.502C373.918 130.443 377.387 145.302 378.052 148.784H404.445C405.11 145.302 408.579 130.443 426.277 115.502C446.873 98.114 454.173 82.161 456.165 68.397C458.147 54.707 456.093 4.411 391.249 4.411Z" fill="#FFC74D"/>
<path d="M391.249 4.411C347.541 4.411 346.156 54.707 347.492 68.397C348.835 82.161 353.756 98.114 367.638 115.502C379.567 130.443 381.906 145.302 382.354 148.784H400.144C400.592 145.302 402.931 130.443 414.86 115.502C428.743 98.114 433.663 82.161 435.006 68.397C436.341 54.707 434.957 4.411 391.249 4.411Z" fill="#78A531"/>
<path d="M391.249 4.411C375.342 4.411 374.838 54.707 375.324 68.397C375.813 82.161 377.604 98.114 382.656 115.502C386.998 130.443 387.849 145.302 388.012 148.784H394.487C394.65 145.302 395.501 130.443 399.843 115.502C404.895 98.114 406.686 82.161 407.175 68.397C407.66 54.707 407.156 4.411 391.249 4.411Z" fill="#FFC74D"/>
<path d="M513.522 193.017H436.54C429.032 193.017 422.945 186.93 422.945 179.422C422.945 171.914 429.032 165.827 436.54 165.827H513.522C521.03 165.827 527.117 171.914 527.117 179.422C527.117 186.93 521.031 193.017 513.522 193.017Z" fill="#F1E3C8"/>
<path d="M68.158 119.184H61.179C56.974 119.184 53.566 122.592 53.566 126.797V134.701C59.895 131.662 65.045 125.471 68.158 119.184Z" fill="#0F2739"/>
<path d="M41.429 133.961C58.7934 133.961 72.87 119.884 72.87 102.52C72.87 85.1556 58.7934 71.079 41.429 71.079C24.0646 71.079 9.98798 85.1556 9.98798 102.52C9.98798 119.884 24.0646 133.961 41.429 133.961Z" fill="#78A531"/>
<path d="M39.747 118.122V116.331C37.957 116.073 36.361 115.469 35.003 114.498C33.645 113.527 32.652 112.406 32.07 111.135C31.876 110.747 31.789 110.358 31.789 109.992C31.789 109.776 31.832 109.539 31.897 109.302C32.048 108.849 32.393 108.483 32.911 108.181C33.256 107.987 33.579 107.901 33.859 107.901C34.485 107.901 35.153 108.333 35.843 109.195C37.05 111.114 39.056 112.171 41.622 112.171C42.916 112.171 44.21 111.826 45.159 111.136C46.173 110.445 46.798 109.432 46.798 108.203C46.798 107.017 46.237 106.111 45.137 105.486C44.382 105.054 43.541 104.795 42.226 104.472L41.665 104.322C38.797 103.782 36.619 102.899 35.11 101.712C33.32 100.311 32.436 98.52 32.436 96.342C32.436 94.337 33.233 92.547 34.592 91.146C35.886 89.787 37.741 88.882 39.746 88.536V86.919C39.746 86.423 39.94 85.97 40.306 85.603C40.651 85.258 41.082 85.086 41.621 85.086C42.117 85.086 42.527 85.258 42.872 85.603C43.217 85.969 43.39 86.423 43.39 86.919V88.536C46.172 88.968 48.457 90.326 49.729 92.417C49.88 92.676 49.966 92.956 49.966 93.237C49.966 93.344 49.945 93.474 49.923 93.647C49.815 94.036 49.621 94.38 49.341 94.661C49.018 94.984 48.478 95.178 47.939 95.178C47.422 95.178 46.99 95.048 46.667 94.791C45.783 94.014 45.028 93.475 44.403 93.195C43.605 92.85 42.656 92.677 41.556 92.677C40.262 92.677 39.055 93.022 38.192 93.648C37.265 94.273 36.747 95.201 36.747 96.3C36.747 97.53 37.416 98.328 38.623 98.931C39.636 99.428 40.844 99.751 43 100.204C45.307 100.808 47.184 101.563 48.564 102.684C50.225 104.021 51.066 105.789 51.066 107.967C51.066 110.059 50.268 111.979 48.888 113.444C47.508 114.932 45.567 115.924 43.389 116.291V118.125C43.389 119.16 42.613 119.958 41.599 119.958C40.566 119.954 39.747 119.156 39.747 118.122Z" fill="white"/>
<path d="M72.87 181.815C72.87 183.401 71.584 184.687 69.998 184.687C68.412 184.687 67.126 183.401 67.126 181.815C67.126 180.229 68.412 178.943 69.998 178.943C71.584 178.944 72.87 180.229 72.87 181.815Z" fill="#FBF6ED"/>
<path d="M103.228 73.863C103.228 75.401 101.981 76.648 100.443 76.648C98.905 76.648 97.658 75.401 97.658 73.863C97.658 72.325 98.905 71.078 100.443 71.078C101.982 71.079 103.228 72.325 103.228 73.863Z" fill="#FBF6ED"/>
<path d="M470.681 73.863C470.681 75.401 469.434 76.648 467.896 76.648C466.358 76.648 465.111 75.401 465.111 73.863C465.111 72.325 466.358 71.078 467.896 71.078C469.434 71.079 470.681 72.325 470.681 73.863Z" fill="#FBF6ED"/>
<path d="M537.9 258.579C537.9 260.117 536.653 261.364 535.115 261.364C533.577 261.364 532.33 260.117 532.33 258.579C532.33 257.041 533.577 255.794 535.115 255.794C536.654 255.794 537.9 257.041 537.9 258.579Z" fill="#FBF6ED"/>
<path d="M51.068 350.632C52.8602 350.632 54.313 349.179 54.313 347.387C54.313 345.595 52.8602 344.142 51.068 344.142C49.2758 344.142 47.823 345.595 47.823 347.387C47.823 349.179 49.2758 350.632 51.068 350.632Z" fill="#FFC74D"/>
<path d="M325.899 60.674C332.178 55.568 338.488 48.162 342.172 37.606L329.022 41.779C326.754 48.677 325.975 55.367 325.899 60.674Z" fill="#0F2739"/>
<path d="M315.065 57.138C330.843 57.138 343.634 44.3472 343.634 28.569C343.634 12.7908 330.843 0 315.065 0C299.287 0 286.496 12.7908 286.496 28.569C286.496 44.3472 299.287 57.138 315.065 57.138Z" fill="#17563B"/>
<path d="M326.415 16.473C325.326 15.889 323.983 16.088 323.11 16.963L318.826 21.255L304.77 20.262C303.556 20.176 303.023 21.762 304.042 22.427L312.284 27.809L308.813 31.287L302.007 30.009C300.94 29.809 300.256 31.107 301.024 31.874L307.816 38.653C308.247 39.083 308.946 39.083 309.376 38.652L316.51 31.504L321.907 39.768C322.572 40.787 324.158 40.254 324.072 39.04L323.075 24.927L327.075 20.919C328.4 19.591 328.069 17.36 326.415 16.473Z" fill="#78A531"/>
</svg>
