<svg width="24" height="24" viewBox="0 0 24 24" fill="none" xmlns="http://www.w3.org/2000/svg">
<path d="M11.669 2.282C11.887 2.239 12.112 2.239 12.331 2.282C12.582 2.33 12.81 2.449 13.022 2.559L13.075 2.587L21.345 6.867C21.467 6.93023 21.5694 7.0258 21.6408 7.14325C21.7122 7.26071 21.75 7.39553 21.75 7.533V15.431C21.75 15.714 21.752 16.014 21.657 16.293C21.5734 16.536 21.4387 16.7584 21.262 16.945C21.057 17.159 20.789 17.296 20.539 17.425L20.476 17.458L12.345 21.666C12.2383 21.7212 12.12 21.7501 12 21.7501C11.8799 21.7501 11.7616 21.7212 11.655 21.666L3.52396 17.458L3.46096 17.425C3.21096 17.296 2.94296 17.159 2.73796 16.945C2.56125 16.7584 2.42657 16.536 2.34296 16.293C2.24796 16.013 2.24896 15.713 2.24996 15.43V7.533C2.24995 7.39553 2.28772 7.26071 2.35914 7.14325C2.43057 7.0258 2.5329 6.93023 2.65496 6.867L10.924 2.587L10.977 2.56C11.19 2.449 11.417 2.33 11.669 2.282ZM11.895 3.778C11.7999 3.82288 11.7059 3.86989 11.613 3.919L4.66796 7.514L7.49496 8.898L14.851 5.195L12.386 3.919C12.293 3.86989 12.199 3.82288 12.104 3.778L12.046 3.754M16.496 6.046L9.18596 9.726L12 11.102L19.332 7.514L16.496 6.046ZM11.25 19.766V12.406L8.24996 10.937V11.937C8.24996 12.1359 8.17094 12.3267 8.03029 12.4673C7.88964 12.608 7.69887 12.687 7.49996 12.687C7.30105 12.687 7.11028 12.608 6.96963 12.4673C6.82898 12.3267 6.74996 12.1359 6.74996 11.937V10.203L3.74996 8.735V15.359C3.74996 15.546 3.74996 15.653 3.75496 15.734L3.76396 15.812C3.7769 15.8469 3.79623 15.8791 3.82096 15.907C3.82596 15.911 3.84196 15.924 3.88496 15.949C3.95296 15.991 4.04796 16.039 4.21296 16.125L11.25 19.766Z" fill="white"/>
</svg>
